Patient4_TMGait_0pt4_03_right_22_EMG.mot
version=1
nRows=16
nColumns=33
inDegrees=no
endheader
time	1LAddLong	2LGlutMax	3LGlutMed	4LIliopsoas	5LSemiMemb	6LBicFemLong	7LRecFem	8LVastMed	9LVastLat	10LGasMed	11LTibAnt	12lTibPost	13LPeroneusLong	14LSol	15LExtDigLong	16LFlexDigLong	17RAddLong	18RGlutMax	19RGlutMed	20RIliopsoas	21RSemiMemb	22RBicFemLong	23RRecFem	24RVastMed	25RVastLat	26RGasMed	27RTibAnt	28RTibPost	29RPeroneusLong	30RSol	31RExtDigLong	32RFlexDigLong
28.58	0.009613	-0.020447	0.23987	-0.007935	-0.010223	-0.02243	0.30594	0.00824	0.011902	-0.001984	-0.010681	-0.004578	-0.066528	0.066833	-0.50674	-0.01297	-0.025635	-1.4839	-0.83695	0.065002	-0.011902	0.2063	0.35614	0.14938	0.074158	0.00412	0.049591	-0.002899	-0.096893	0.50293	-0.009155	-0.004272
28.581	0.012665	-0.006409	0.23605	0.010376	-0.012054	-0.024414	0.29343	0.011139	0.01358	-0.033722	-0.45288	-0.002136	0.046692	0.12299	-0.094757	-0.028992	-0.010681	-1.5572	-1.3292	0.071411	0.021057	0.14557	0.3067	0.036316	0.089264	0.005951	0.15137	-0.007782	-0.14481	0.33752	-0.006256	0
28.582	0.008698	-0.004425	0.22888	0.003204	-0.017242	-0.02121	0.30731	0.007019	0.010071	-0.027924	-0.36758	0.00946	0.066376	0.17227	-0.7077	0.008698	-0.018158	-1.7281	-1.6245	0.021973	-0.014343	0.083923	0.14679	-0.11322	0.39978	0	0.18173	-0.002136	-0.24887	0.21805	-0.007477	-0.00473
28.583	0.012512	0.044098	0.21774	-0.00885	-0.016022	-0.02182	0.30563	0.010681	0.0177	-0.047302	0.1152	-0.007935	0.049591	0.22079	0.18601	0.028381	0.000153	-1.8884	-1.936	0.045166	-0.03952	0.042572	0.1767	-0.13138	0.46219	-0.005035	0.086212	-0.018768	0.077209	0.062866	-0.007935	-0.011597
28.584	0.013123	0.058136	0.19989	-0.017853	-0.007324	-0.02533	0.25574	0.007324	0.026398	-0.043182	0.13397	0.012207	0.016327	0.20004	0.21408	0.047302	0.013733	-1.9066	-2.4149	0.1326	0.001068	-0.042114	0.21454	-0.1474	0.33264	0.007324	-0.000916	-0.008392	0.091858	-0.055084	-0.000153	-0.011597
28.585	0.007782	0.058289	0.19943	-0.00473	-0.009766	-0.043945	0.16068	0.013885	0.025024	-0.020447	0.024872	0.009766	-0.006104	0.13977	-0.48202	0.047302	0.013733	-1.8851	-2.3431	0.058289	0.048523	-0.080109	0.03952	-0.17425	0.25131	0.011749	0.04425	-0.018463	-0.84518	0.046234	-0.011902	-0.016174
28.586	0.008545	0.077972	0.20111	0.012665	-0.009613	-0.040283	0.018311	0.01297	0.013428	-0.001526	-0.11139	0.007324	-0.028076	0.055084	-0.88104	0.035553	-0.007935	-1.6986	-0.25314	-0.1236	0.044861	-0.029449	-0.16205	-0.14999	0.10147	0.014343	0.10651	-0.011292	-0.37689	0.12711	-0.004883	-0.013123
28.587	0.010071	0.031891	0.19043	0.00061	-0.006866	-0.032806	-0.037231	0.013123	0.021667	0.007629	-0.20157	-0.006104	-0.056763	0.056	-0.34363	0.051575	-0.007019	-1.687	-0.43625	-0.02655	-0.086212	0.076141	-0.10986	-0.06424	-0.1355	0.023499	0.061035	-0.012054	0.093231	0.059814	-0.006104	-0.017548
28.588	0.005035	0.039215	0.16159	-0.003815	-0.002136	-0.039368	-0.008392	0.005646	0.030212	0.008087	-0.16464	0.013275	-0.056152	0.032501	-0.26977	0.061188	0.011139	-1.575	-0.69916	-0.027924	-0.18646	0.12756	-0.019531	0.064545	-0.46097	0.003967	0.002441	-0.015564	0.060883	0.033112	-0.011292	-0.00885
28.589	0.009613	0.042419	0.15411	0.00061	-0.006409	-0.036163	0.000305	0.011292	0.019836	0.015564	-0.19882	0.010986	-0.052643	0.028381	-0.21591	0.055542	0.021515	-1.3344	-1.0066	-0.025635	-0.27222	0.19806	-0.19516	0.10651	-0.55222	0.004425	0.019684	-0.015564	0.059509	-0.02121	-0.003662	-0.015564
28.59	0.00351	0.032349	0.15243	0.020599	-0.006104	-0.022278	0.12985	0.010681	0.034943	-0.000153	-0.10544	0.013123	-0.007019	0.000916	-0.041504	0.042572	0.020142	-1.1732	-0.91583	-0.014801	-0.18372	0.15228	-0.32944	0.20386	-0.38177	-0.037994	0.076599	-0.01709	-0.011292	0.023193	-0.003662	-0.021362
28.591	0.003815	0.016632	0.14191	0.006561	-0.007477	-0.014496	0.16068	0.014954	0.027618	-0.045471	0.079193	-0.005035	0.023041	0.075836	0.11581	0.033722	0.036163	-1.0262	-0.67749	-0.00885	0.000763	0.067444	-0.17914	0.18601	-0.17731	-0.02121	0.09613	-0.015564	0.18112	0.031433	-0.006714	-0.015106
28.592	0.003204	0.029297	0.12817	-0.001221	-0.013733	-0.029297	0.18372	0.015411	0.035706	-0.029755	0.10315	0.002441	0.013123	0.013428	0.018921	0.020447	0.019073	-0.77087	-0.96268	0.037384	0.22186	0.049591	-0.10056	0.12619	-0.095673	0.005798	0.079651	-0.015259	0.025635	0.050201	-0.006256	-0.023804
28.593	0.013733	0.019379	0.13428	-0.002136	-0.006409	-0.041351	0.20386	0.016174	0.059357	0.0177	0.092773	0.016327	-0.045624	-0.06424	-0.056	0.024719	-0.001373	-0.59586	-1.1804	0.036163	0.15243	0.048218	-0.13214	0.10452	-0.096893	-0.015106	0.085297	-0.024261	-0.039368	0.028229	-0.006104	-0.020905
28.594	0.015564	-0.003815	0.13428	-0.001526	0.006104	-0.041962	0.22018	0.014191	0.038452	0.03891	0.11978	0.01709	-0.087738	-0.112	0.17532	0.011749	0.002594	-0.48904	-0.50583	-0.090027	0.11444	-0.011292	-0.16571	0.1445	-0.072632	-0.053101	0.090485	-0.048981	0.063934	-0.03067	-0.002594	-0.021362
28.595	0.021667	-0.001068	0.11902	0.006409	-0.00351	-0.038757	0.19119	0.018311	0.051117	0.021973	0.053406	0.006866	-0.050354	-0.089264	0.22507	0.011139	0.008698	-0.3595	-0.32303	-0.1831	0.17853	-0.16449	-0.15839	0.11368	-0.056152	-0.08194	0.10117	-0.012207	-0.046844	-0.067749	-0.005646	-0.020142
